<?xml version="1.0" standalone="no"?>
<!DOCTYPE svg PUBLIC "-//W3C//DTD SVG 20010904//EN"
 "http://www.w3.org/TR/2001/REC-SVG-20010904/DTD/svg10.dtd">
<svg version="1.0" xmlns="http://www.w3.org/2000/svg"
 width="463.000000pt" height="463.000000pt" viewBox="0 0 463.000000 463.000000"
 preserveAspectRatio="xMidYMid meet">
<metadata>
Created by potrace 1.11, written by Peter Selinger 2001-2013
</metadata>
<g transform="translate(0.000000,463.000000) scale(0.100000,-0.100000)"
fill="#000000" stroke="none">
<path d="M2701 4389 c-1 -21 -42 -33 -53 -16 -6 9 -8 9 -8 -2 0 -8 -7 -11 -19
-8 -15 3 -18 1 -14 -11 4 -10 2 -13 -5 -8 -6 3 -13 2 -17 -4 -3 -5 -11 -10
-16 -10 -6 0 -7 5 -3 12 4 7 3 8 -4 4 -7 -4 -12 -14 -12 -23 0 -9 -6 -13 -15
-9 -9 3 -15 0 -15 -9 0 -8 -5 -15 -11 -15 -5 0 -7 5 -3 12 5 7 3 8 -5 4 -7 -5
-10 -10 -7 -13 3 -3 1 -15 -5 -26 -9 -15 -8 -18 3 -12 10 6 10 5 -1 -6 -10
-11 -15 -11 -18 -1 -3 6 -9 12 -14 12 -6 0 -7 -5 -3 -11 5 -8 1 -8 -13 0 -11
6 -23 7 -27 3 -4 -3 -4 2 0 13 5 16 4 18 -6 8 -10 -9 -17 -7 -33 7 -15 15 -24
17 -39 9 -23 -13 -39 -2 -18 11 9 6 10 10 3 10 -6 0 -14 -4 -18 -9 -7 -12 -49
-5 -53 9 -2 5 -8 10 -13 10 -6 0 -8 -4 -5 -8 3 -5 -1 -9 -9 -9 -8 0 -12 4 -10
8 3 3 -4 9 -16 12 -17 5 -18 3 -8 -9 10 -12 9 -13 -5 -8 -9 3 -16 11 -16 17 0
6 -6 2 -14 -8 -11 -15 -15 -16 -22 -4 -5 8 -19 14 -31 15 -12 0 -20 -3 -17 -8
6 -10 6 -10 -34 2 -30 8 -32 7 -21 -6 10 -12 10 -15 -2 -12 -8 2 -17 8 -21 13
-5 6 -8 5 -8 -2 0 -7 -6 -10 -14 -7 -8 3 -17 1 -21 -5 -3 -6 -11 -11 -16 -11
-6 0 -7 6 -3 13 6 9 5 9 -8 0 -8 -7 -19 -9 -23 -5 -5 4 -5 -2 -1 -12 5 -16 4
-17 -9 -6 -8 7 -15 8 -15 2 0 -5 -7 -13 -16 -16 -15 -6 -15 -4 -3 11 10 14 10
16 0 6 -7 -6 -19 -10 -25 -9 -6 2 -8 1 -3 -1 14 -8 7 -25 -8 -19 -8 3 -15 1
-15 -3 0 -5 -11 -8 -25 -7 -13 2 -23 -2 -22 -8 1 -6 -6 -10 -15 -10 -10 1 -18
-2 -18 -8 0 -5 -5 -6 -12 -2 -7 5 -8 3 -3 -6 6 -10 1 -12 -26 -7 -19 3 -28 3
-21 0 17 -7 15 -26 -2 -20 -10 4 -13 1 -10 -8 4 -10 0 -13 -15 -10 -13 2 -21
-1 -21 -10 0 -9 -6 -12 -17 -8 -12 5 -14 3 -8 -7 6 -10 4 -12 -8 -7 -10 4 -17
2 -17 -5 0 -7 -5 -6 -15 2 -13 11 -14 10 -9 -5 5 -13 4 -16 -5 -11 -8 5 -14 1
-18 -13 -3 -12 -10 -21 -15 -21 -5 0 -7 4 -3 9 3 5 0 13 -6 17 -7 4 -9 3 -6
-3 3 -5 -3 -17 -14 -26 -10 -9 -19 -12 -19 -7 0 18 -22 10 -27 -10 -5 -19 -6
-20 -19 -3 -11 14 -14 14 -12 3 2 -10 -4 -14 -16 -12 -10 2 -15 -1 -12 -7 4
-5 1 -13 -5 -17 -8 -4 -9 -3 -5 4 10 16 -7 15 -23 0 -11 -11 -13 -10 -7 2 4 8
0 6 -9 -5 -9 -11 -21 -19 -27 -17 -5 1 -16 -2 -22 -8 -7 -5 -16 -7 -19 -3 -4
3 -7 0 -7 -8 0 -12 -2 -11 -11 1 -8 12 -12 12 -16 2 -4 -9 -8 -10 -18 -2 -11
9 -12 6 -8 -12 4 -18 3 -20 -6 -8 -10 14 -12 13 -15 -9 0 -5 -5 -13 -10 -18
-5 -5 -6 -3 -2 5 4 6 2 12 -3 12 -6 0 -11 -4 -11 -9 0 -5 -13 -12 -30 -16 -16
-4 -30 -13 -30 -21 0 -8 -5 -14 -11 -14 -5 0 -7 5 -3 12 4 7 3 8 -5 4 -6 -4
-9 -11 -6 -15 5 -9 -49 -61 -62 -61 -5 1 5 11 21 24 21 18 25 25 15 31 -8 5
-11 5 -7 0 8 -8 -31 -42 -44 -38 -4 2 -5 -4 -2 -11 5 -14 -30 -59 -39 -50 -3
3 -7 -7 -11 -20 -3 -14 -10 -25 -14 -25 -19 3 -25 -2 -12 -11 13 -8 12 -12 -4
-27 -15 -13 -17 -14 -8 -2 10 13 10 18 -1 22 -14 5 -17 -19 -5 -38 3 -6 -1
-17 -10 -25 -14 -13 -15 -12 -9 3 3 9 4 17 1 17 -2 0 -9 -10 -13 -22 -6 -17
-4 -28 7 -41 14 -15 14 -18 2 -15 -8 2 -14 -3 -12 -10 1 -8 -2 -11 -8 -7 -8 5
-7 12 2 23 12 15 11 16 -4 3 -13 -10 -15 -18 -8 -31 13 -24 13 -30 -1 -30 -5
0 -8 4 -4 9 3 5 1 12 -4 16 -11 6 -7 -27 5 -47 4 -6 3 -8 -4 -4 -10 6 -12 0
-12 -49 0 -11 0 -30 0 -42 0 -13 5 -23 11 -23 8 0 8 -5 -1 -15 -10 -12 -9 -16
5 -21 13 -5 14 -9 3 -15 -10 -7 -9 -9 3 -9 9 0 23 -8 30 -17 13 -17 13 -17 -5
-3 -18 14 -19 14 -7 -8 7 -12 17 -20 24 -17 7 4 4 0 -6 -8 -17 -14 -24 -33 -9
-23 5 3 9 -1 9 -9 0 -8 -4 -12 -9 -9 -4 3 -8 0 -8 -6 0 -6 -4 -8 -10 -5 -5 3
-10 1 -10 -4 0 -6 6 -11 13 -11 6 0 1 -10 -13 -21 -14 -11 -18 -18 -10 -14 12
5 12 4 -1 -7 -9 -7 -14 -18 -12 -25 2 -6 -1 -14 -6 -18 -6 -3 -11 -17 -11 -31
0 -14 -6 -27 -14 -30 -8 -3 -16 -14 -19 -25 -4 -14 -1 -19 8 -16 9 4 11 -1 8
-14 -3 -10 -10 -19 -15 -19 -5 0 -6 5 -2 12 4 6 3 8 -3 5 -6 -4 -8 -18 -5 -33
3 -20 7 -23 14 -12 7 10 8 8 4 -5 -3 -10 -6 -21 -6 -23 0 -3 -4 -3 -9 1 -6 3
-7 -6 -2 -23 7 -22 5 -29 -5 -29 -8 0 -14 5 -14 11 0 6 -4 5 -9 -3 -5 -8 -6
-21 -3 -30 5 -13 3 -14 -10 -3 -13 10 -15 9 -13 -12 2 -15 -3 -27 -12 -30 -10
-4 -14 -15 -11 -30 4 -18 1 -23 -10 -18 -12 4 -14 0 -10 -16 4 -12 3 -20 -2
-17 -4 3 -11 -2 -14 -11 -4 -10 -2 -13 7 -8 6 4 5 -1 -4 -12 -9 -10 -23 -34
-32 -52 -15 -31 -15 -33 0 -28 14 6 14 4 2 -11 -8 -10 -20 -22 -27 -26 -10 -7
-10 -12 -1 -23 9 -11 8 -14 -2 -14 -9 -1 -7 -6 6 -17 18 -14 18 -15 1 -9 -15
5 -17 2 -13 -14 3 -11 2 -18 -3 -15 -4 3 -10 -1 -13 -9 -3 -8 1 -17 9 -20 8
-3 14 -11 13 -18 0 -10 -2 -10 -6 0 -2 6 -9 12 -14 12 -6 0 -8 -4 -5 -9 3 -5
-1 -12 -10 -15 -15 -6 -15 -8 0 -24 15 -17 14 -20 -3 -39 -11 -12 -17 -23 -14
-27 3 -3 0 -13 -8 -23 -12 -15 -12 -16 1 -9 10 5 10 3 -2 -6 -11 -10 -13 -19
-7 -31 8 -13 6 -15 -5 -11 -7 3 -17 0 -22 -7 -5 -8 -3 -10 6 -4 10 6 12 4 7
-9 -4 -10 -7 -24 -7 -32 0 -9 -5 -12 -11 -8 -8 4 -8 1 -1 -12 7 -14 6 -25 -3
-38 -12 -16 -12 -23 0 -47 9 -17 11 -30 5 -34 -12 -7 9 -55 23 -52 5 1 11 -6
12 -16 2 -9 -1 -15 -6 -11 -5 3 -6 11 -3 17 5 9 3 9 -6 0 -10 -10 -11 -15 -1
-27 9 -10 9 -16 1 -21 -8 -5 -8 -10 0 -20 8 -10 6 -15 -10 -20 -20 -6 -21 -7
-3 -21 11 -9 13 -13 4 -12 -7 2 -16 -3 -19 -11 -3 -8 0 -11 6 -7 7 4 9 -2 7
-16 -3 -13 -10 -25 -15 -26 -6 -2 -3 -10 7 -18 15 -12 15 -13 1 -8 -13 4 -15
1 -11 -18 4 -13 11 -26 17 -30 7 -5 3 -8 -8 -8 -16 0 -17 -2 -5 -17 8 -9 9
-14 4 -11 -6 4 -11 -2 -11 -12 0 -11 5 -16 14 -12 12 4 12 1 3 -16 -8 -15 -8
-22 -1 -22 7 0 7 -7 -1 -21 -8 -15 -8 -19 0 -15 6 4 11 2 11 -4 0 -6 5 -8 12
-4 7 4 8 3 4 -5 -4 -6 -11 -9 -16 -6 -10 6 -22 -23 -14 -36 3 -5 0 -9 -6 -9
-6 0 -9 -4 -5 -9 3 -5 0 -13 -6 -16 -5 -4 -8 -13 -5 -20 2 -7 -1 -16 -9 -19
-20 -7 -15 -48 5 -41 9 3 8 -1 -4 -10 -14 -10 -15 -15 -6 -15 11 0 11 -3 2
-12 -16 -16 -15 -31 0 -22 9 5 9 2 -1 -9 -11 -14 -11 -17 0 -17 12 0 12 -2 0
-9 -9 -6 -10 -10 -2 -16 9 -5 9 -10 0 -21 -6 -8 -8 -14 -4 -14 4 0 2 -6 -4
-14 -9 -11 -9 -16 0 -22 8 -4 9 -3 5 4 -4 7 -2 12 3 12 14 0 14 -13 -1 -28 -8
-8 -8 -12 -1 -12 6 0 11 -16 11 -36 0 -20 6 -40 13 -45 8 -5 9 -9 3 -9 -6 0
-11 -7 -11 -15 0 -8 4 -15 9 -15 4 0 8 -9 8 -21 0 -11 4 -18 9 -15 5 3 8 -2 7
-12 0 -10 5 -16 13 -14 12 3 12 1 1 -14 -13 -14 -11 -19 9 -35 13 -11 19 -19
15 -19 -5 0 0 -7 10 -15 13 -10 15 -15 6 -15 -9 0 -7 -5 6 -15 14 -11 15 -14
4 -15 -13 0 -13 -2 -1 -9 10 -6 16 -29 17 -61 1 -29 7 -55 13 -59 6 -4 13 -17
16 -29 2 -12 7 -27 11 -34 4 -6 3 -8 -4 -5 -6 5 -8 0 -5 -13 3 -11 10 -20 15
-20 5 0 6 5 2 12 -4 7 -3 8 5 4 9 -6 9 -11 0 -22 -11 -14 -2 -19 24 -15 5 1 6
-3 2 -9 -3 -6 -12 -8 -18 -4 -7 3 -5 0 4 -8 9 -7 14 -19 12 -25 -3 -7 0 -13 7
-13 6 0 8 -5 4 -13 -5 -7 -1 -7 12 3 10 8 16 10 12 6 -4 -5 -2 -16 5 -24 10
-13 9 -14 -1 -8 -10 6 -10 2 -1 -18 7 -14 16 -23 20 -20 5 3 10 0 10 -5 2 -12
5 -26 9 -38 1 -5 2 -11 1 -15 0 -4 5 -5 12 -3 6 3 23 -5 37 -16 23 -18 23 -19
2 -9 -14 7 -22 7 -22 1 0 -6 11 -13 25 -17 14 -3 22 -10 19 -15 -3 -5 0 -9 6
-9 6 0 8 -5 4 -13 -5 -8 -2 -8 9 2 15 12 17 11 18 -5 1 -11 1 -22 1 -25 -1 -4
8 -5 18 -2 11 3 20 0 20 -6 0 -6 7 -11 16 -11 9 0 12 -5 8 -13 -5 -8 -2 -7 9
2 15 12 17 12 12 -1 -5 -12 0 -15 25 -12 19 2 29 0 25 -6 -3 -6 3 -10 15 -10
20 0 31 -6 70 -42 13 -12 20 -13 24 -5 3 9 5 9 5 0 1 -7 8 -13 17 -13 9 0 12
-5 8 -12 -5 -9 -2 -9 9 1 9 7 17 9 17 4 0 -5 17 -9 37 -8 21 0 46 -6 55 -13
14 -12 21 -12 33 -2 10 8 15 9 15 1 0 -6 5 -11 11 -11 5 0 7 5 4 10 -3 6 0 10
9 10 8 0 17 -6 19 -12 4 -10 6 -10 6 -1 1 8 8 10 19 6 15 -6 16 -5 2 13 -9 12
-9 15 -1 7 9 -8 22 -8 42 -1 16 5 36 8 44 4 8 -3 17 -1 20 5 4 5 10 7 15 4 5
-3 12 0 16 6 4 7 3 9 -4 5 -6 -3 -14 -1 -18 6 -4 7 -4 10 1 6 4 -4 17 -3 28 3
15 8 18 8 12 -1 -5 -8 -3 -11 6 -8 8 3 23 0 34 -5 28 -16 87 -16 75 -2 -7 9 2
10 35 5 26 -4 42 -3 38 3 -3 5 10 7 31 4 28 -4 39 0 50 14 7 10 16 16 21 11 4
-4 5 2 1 12 -7 19 -6 19 13 2 19 -17 19 -17 17 1 -3 18 10 33 29 33 6 0 3 -5
-5 -10 -8 -5 -10 -10 -4 -10 17 0 37 28 29 41 -6 8 -2 8 13 0 17 -9 23 -7 35
9 7 11 18 17 23 12 4 -4 2 1 -5 11 -12 15 -12 17 4 10 14 -5 17 -3 13 9 -5 11
0 14 19 12 18 -2 23 1 19 13 -4 10 -2 13 8 10 8 -3 17 0 20 8 3 10 0 12 -12 9
-14 -4 -13 -3 2 6 15 10 20 9 27 -1 5 -9 7 -2 4 19 -3 29 -1 32 16 27 11 -4
19 -3 18 2 -1 4 -1 17 0 27 1 19 1 19 23 0 15 -13 18 -13 10 -3 -10 14 -9 17
7 22 15 4 18 1 13 -12 -5 -14 -3 -14 21 2 25 16 26 16 20 0 -6 -16 -5 -16 10
-4 9 7 24 11 32 7 8 -3 15 -1 15 4 0 5 7 7 15 4 9 -4 15 0 15 7 0 11 2 11 9 0
7 -12 13 -12 24 -3 7 7 18 8 22 4 5 -4 5 2 1 12 -5 15 -4 17 8 7 11 -10 18 -7
31 11 l17 23 -7 -25 -6 -25 19 24 c19 23 20 23 25 5 4 -16 5 -16 6 -1 0 9 6
17 12 17 5 0 8 4 5 8 -3 5 1 9 9 9 8 0 15 -5 15 -11 0 -6 6 0 13 14 9 18 19
24 37 22 21 -4 22 -2 11 12 -13 15 -11 16 14 6 23 -9 26 -8 17 3 -8 10 -6 13
9 14 30 3 69 31 69 49 0 10 6 14 15 10 10 -3 15 1 15 11 0 9 3 14 6 10 9 -9
33 16 26 28 -3 6 2 4 12 -4 9 -8 16 -10 15 -5 -2 16 13 54 22 54 5 0 9 8 9 18
0 14 2 15 10 2 8 -13 10 -13 11 3 3 38 5 42 21 39 9 -1 20 3 24 9 4 7 3 9 -4
5 -6 -3 -14 -1 -18 5 -5 8 4 10 29 7 26 -3 33 -1 27 7 -11 13 17 14 37 2 14
-9 45 2 38 13 -3 5 -1 11 5 15 5 3 10 1 10 -5 0 -6 5 -8 10 -5 6 4 8 11 5 16
-9 13 9 11 24 -3 10 -11 11 -9 5 6 -6 15 -4 17 6 11 10 -6 12 -4 6 10 -5 15
-4 16 9 5 11 -9 15 -9 15 -1 0 7 4 10 9 7 5 -3 15 2 22 11 12 14 12 16 0 8 -9
-5 -12 -4 -7 3 4 6 13 9 21 5 9 -3 15 1 15 10 0 9 5 19 12 23 6 4 8 3 4 -4 -3
-6 -1 -14 5 -18 8 -4 9 -3 5 4 -4 7 -3 12 3 12 6 0 8 6 5 14 -3 8 0 17 7 22 8
4 10 3 5 -4 -5 -8 -2 -10 8 -6 9 3 13 10 10 15 -3 5 2 9 10 9 9 0 16 5 16 11
0 5 -5 7 -12 3 -7 -5 -8 -3 -4 5 5 7 14 10 22 7 8 -3 14 1 14 10 0 8 7 17 15
20 8 4 12 11 8 18 -4 6 2 4 12 -4 10 -8 16 -10 12 -4 -4 7 1 18 10 25 15 12
16 12 10 -5 -7 -18 -6 -18 20 -1 28 18 28 18 10 -2 -17 -20 -17 -20 5 -18 13
2 31 6 41 10 10 4 17 3 17 -5 0 -6 5 -8 10 -5 6 4 7 12 4 18 -4 7 -3 9 1 4 5
-4 17 1 28 10 11 10 17 13 14 7 -4 -7 0 -14 8 -18 8 -3 15 -1 15 4 0 5 8 6 18
3 14 -6 15 -4 5 8 -10 12 -8 15 7 15 10 0 16 -4 14 -8 -3 -4 0 -8 5 -8 6 0 11
6 11 13 0 8 7 14 15 15 8 1 21 3 29 4 7 1 11 9 9 18 -5 18 22 35 38 24 5 -3 9
-2 8 3 -3 20 2 34 11 28 9 -5 15 15 11 37 0 4 6 5 13 2 16 -6 40 29 28 40 -3
4 1 4 10 1 9 -4 19 -1 24 6 4 7 3 10 -4 5 -6 -3 -14 -2 -17 4 -4 6 -3 10 2 9
18 -3 33 2 33 11 0 5 -8 7 -17 3 -27 -9 -12 2 25 20 25 12 33 13 29 3 -3 -7 1
-13 9 -13 7 0 11 4 8 9 -7 11 3 10 27 -2 14 -8 19 -7 20 2 0 7 4 4 9 -7 8 -18
9 -18 9 -2 1 10 6 15 11 12 17 -10 70 5 70 20 0 8 10 19 21 26 13 7 19 7 15 1
-3 -6 -2 -14 4 -17 6 -4 10 -3 9 2 -3 19 2 34 10 29 5 -3 11 3 14 14 3 11 13
20 22 20 10 0 13 5 9 12 -5 8 -2 9 11 4 16 -6 16 -4 4 11 -9 11 -10 14 -1 9
11 -7 17 5 13 27 -1 4 7 4 17 -2 14 -8 18 -6 19 11 2 22 22 40 35 32 4 -3 8 0
8 5 0 6 -6 11 -12 11 -7 0 -2 6 12 13 18 9 25 20 24 40 -1 22 1 25 13 16 7 -7
16 -9 20 -5 3 3 1 6 -5 6 -17 0 -15 27 3 34 8 3 12 11 9 19 -3 8 2 20 11 27 8
7 15 17 15 23 0 6 -6 3 -13 -8 -11 -14 -16 -15 -22 -5 -5 9 -4 11 3 6 11 -6
17 12 13 36 0 4 5 5 12 3 8 -4 12 5 12 25 1 20 -4 30 -15 31 -10 0 -9 3 5 9
13 6 15 9 5 9 -13 1 -13 2 0 11 13 9 13 10 0 10 -13 0 -13 1 0 10 8 5 10 10 3
10 -6 0 -10 8 -8 18 1 9 -4 31 -13 47 -15 29 -14 29 4 15 18 -15 18 -14 0 14
-10 16 -13 25 -6 21 8 -5 7 0 -2 14 -11 18 -11 23 2 31 8 5 10 10 5 10 -6 0
-17 -6 -24 -12 -11 -11 -11 -9 -1 10 10 20 9 27 -6 43 -17 19 -17 20 2 14 12
-4 10 -1 -6 9 -23 14 -23 15 -5 16 l20 1 -20 9 c-13 6 -15 9 -5 9 12 1 13 3 1
10 -9 6 -10 11 -2 15 7 5 7 15 -1 34 -6 15 -10 37 -9 50 0 16 -3 21 -12 15 -6
-4 -4 5 5 19 13 19 15 29 6 34 -7 4 -8 3 -4 -4 5 -8 2 -10 -8 -6 -9 3 -16 10
-16 16 0 5 5 6 10 3 6 -3 10 -1 10 5 0 6 5 8 12 4 7 -4 8 -3 4 5 -4 6 -13 8
-19 4 -7 -4 -6 0 2 10 11 14 11 17 0 17 -11 0 -11 2 1 10 13 9 13 10 0 10 -13
0 -13 1 0 10 12 8 12 10 1 10 -9 0 -10 4 -4 13 12 15 11 26 -6 56 -7 13 -8 21
-3 17 12 -7 11 42 -1 62 -5 6 -5 12 0 12 4 0 1 5 -7 10 -12 8 -12 10 -1 10 8
0 11 7 8 20 -4 14 0 20 11 20 15 1 15 2 0 11 -10 5 -18 15 -18 20 0 6 4 7 10
4 6 -3 7 1 4 9 -3 9 -10 16 -15 16 -5 0 -9 4 -9 10 0 5 8 6 17 3 15 -6 16 -5
3 9 -8 9 -18 14 -22 12 -4 -2 -10 1 -14 7 -4 8 -3 9 4 5 8 -5 11 5 10 33 -1
32 -4 38 -14 30 -10 -8 -11 -5 -7 12 5 17 3 20 -8 14 -11 -7 -11 -5 1 10 8 10
10 16 3 12 -7 -5 -12 -1 -12 10 -1 39 -5 52 -13 47 -4 -3 -8 0 -8 6 0 6 -5 8
-12 4 -10 -6 -10 -4 0 8 10 13 10 18 1 24 -8 5 -9 3 -4 -6 5 -8 4 -11 -3 -6
-6 3 -9 16 -7 28 3 11 2 18 -2 14 -3 -3 -11 4 -18 17 -6 12 -17 21 -23 19 -7
-1 -12 2 -12 8 0 5 4 10 10 10 5 0 8 10 6 23 -2 12 1 28 7 35 6 7 6 12 1 11
-23 -4 -24 2 -4 19 l23 19 -24 18 c-15 11 -17 15 -6 11 14 -4 16 -2 9 12 -11
20 -4 45 9 36 5 -3 9 0 9 5 0 6 -7 11 -15 11 -8 0 -15 5 -15 11 0 5 4 8 9 5
11 -7 8 21 -4 31 -4 5 -4 1 0 -7 8 -13 7 -13 -8 -1 -18 14 -24 26 -8 17 5 -3
14 1 21 9 11 13 10 14 -4 9 -17 -6 -19 1 -17 46 2 21 0 22 -9 10 -10 -12 -11
-11 -7 7 3 12 2 21 -2 20 -4 -1 -20 12 -34 29 -21 24 -24 34 -14 44 9 10 9 11
0 6 -8 -4 -13 -1 -13 8 0 9 -8 16 -17 16 -15 0 -16 2 -3 10 12 8 11 10 -7 10
-12 0 -25 5 -29 12 -5 7 -3 8 6 3 10 -6 12 -4 7 9 -6 14 -3 17 9 12 14 -5 15
-4 4 9 -8 10 -9 15 -1 15 6 0 11 10 11 23 0 18 2 19 10 7 8 -12 10 -11 11 8 2
36 17 73 33 84 7 5 7 8 -2 8 -9 0 -7 9 8 29 14 21 17 32 9 37 -7 4 -9 3 -5 -4
3 -6 2 -13 -3 -16 -5 -4 -9 7 -9 24 1 16 5 30 9 30 5 0 5 7 2 17 -5 12 -3 14
8 8 8 -5 5 1 -5 13 -14 17 -16 22 -5 22 10 1 8 4 -4 11 -15 9 -16 13 -5 27 11
13 11 15 -4 9 -10 -3 -20 -1 -24 5 -4 6 -3 8 4 4 7 -4 10 1 9 14 -1 11 -7 20
-15 20 -7 0 -10 5 -7 10 3 6 -1 10 -9 10 -8 0 -18 5 -22 12 -4 6 -3 8 4 4 6
-3 13 -2 16 3 4 5 -5 8 -19 6 -20 -2 -24 1 -20 16 5 14 2 16 -15 12 -11 -3
-20 -2 -19 3 3 19 -2 28 -9 17 -6 -9 -16 -6 -36 12 -34 29 -44 32 -25 8 13
-17 13 -17 -13 -1 -20 13 -28 14 -31 5 -3 -7 -6 -6 -6 4 -1 9 -8 20 -17 23
-14 5 -15 4 -4 -9 10 -12 10 -15 -4 -15 -9 0 -16 6 -16 13 0 7 -3 8 -8 2 -11
-16 -34 -17 -43 -3 -7 10 -9 9 -9 -4 0 -12 -5 -15 -17 -11 -10 4 -14 2 -10 -4
8 -12 -11 -12 -29 0 -7 4 -11 0 -10 -10 1 -11 -10 -19 -34 -25 -19 -5 -39 -10
-45 -11 -22 -6 -34 -18 -29 -32 4 -10 0 -13 -15 -10 -11 2 -24 -1 -27 -7 -5
-7 -2 -8 6 -3 9 6 11 4 6 -4 -5 -7 -15 -10 -23 -7 -8 3 -11 1 -8 -4 3 -6 1
-10 -5 -10 -6 0 -8 -5 -4 -12 4 -7 3 -8 -5 -4 -6 4 -8 13 -4 19 4 7 -2 5 -12
-3 -11 -9 -16 -10 -11 -2 4 7 2 12 -5 12 -8 0 -8 5 2 18 7 9 10 14 5 10 -10
-9 -36 14 -28 26 3 5 0 6 -5 3 -6 -4 -16 0 -23 8 -11 13 -10 14 6 8 16 -6 17
-5 4 9 -8 9 -18 14 -22 11 -5 -2 -8 1 -8 7 0 6 -4 9 -9 6 -5 -3 -12 1 -15 10
-3 8 -11 12 -17 8 -8 -4 -7 0 1 16 11 20 10 21 -9 11 -14 -8 -22 -8 -27 1 -5
7 -3 8 6 3 9 -5 11 -4 6 4 -4 6 -12 8 -18 5 -6 -4 -13 -2 -17 5 -4 6 -19 12
-33 13 -15 1 -25 6 -22 10 3 4 -5 12 -17 18 -17 10 -20 9 -13 -1 4 -7 -8 -2
-26 11 -18 13 -30 19 -26 12 4 -7 1 -12 -9 -12 -9 0 -14 4 -11 9 4 5 -3 7 -14
4 -11 -3 -17 -10 -13 -16 3 -6 1 -7 -6 -3 -6 4 -8 12 -5 18 4 6 -4 8 -18 6
-14 -1 -33 3 -42 11 -14 12 -16 12 -10 -5 7 -18 6 -18 -16 1 -13 11 -20 14
-16 8 4 -7 3 -13 -3 -13 -5 0 -12 6 -14 13 -4 10 -6 10 -6 0 -1 -7 -6 -13 -12
-13 -5 0 -7 6 -3 13 6 10 4 10 -7 0 -7 -7 -19 -13 -27 -13 -7 0 -10 6 -7 13 4
6 0 4 -8 -6 -15 -18 -15 -18 -20 0 -4 14 -5 15 -6 2z m-332 -113 c11 -14 6
-15 -27 -7 -4 1 8 21 12 21 2 0 9 -6 15 -14z m1041 -86 c0 -5 -5 -10 -11 -10
-5 0 -7 5 -4 10 3 6 8 10 11 10 2 0 4 -4 4 -10z m567 -866 c-3 -3 -12 -4 -19
-1 -8 3 -5 6 6 6 11 1 17 -2 13 -5z m-20 -59 c0 -8 -4 -12 -9 -9 -5 3 -6 10
-3 15 9 13 12 11 12 -6z m160 -630 c0 -8 -4 -12 -9 -9 -5 3 -6 10 -3 15 9 13
12 11 12 -6z m-3490 -31 c-3 -3 -12 -4 -19 -1 -8 3 -5 6 6 6 11 1 17 -2 13 -5z
m-40 -150 c-3 -3 -12 -4 -19 -1 -8 3 -5 6 6 6 11 1 17 -2 13 -5z m3543 -64 c0
-5 -4 -10 -10 -10 -5 0 -10 5 -10 10 0 6 5 10 10 10 6 0 10 -4 10 -10z m0
-614 c0 -3 -4 -8 -10 -11 -5 -3 -10 -1 -10 4 0 6 5 11 10 11 6 0 10 -2 10 -4z
m-3640 -272 c0 -2 -7 -4 -15 -4 -8 0 -15 4 -15 10 0 5 7 7 15 4 8 -4 15 -8 15
-10z m45 -434 c3 -5 1 -10 -4 -10 -6 0 -11 5 -11 10 0 6 2 10 4 10 3 0 8 -4
11 -10z m2375 -50 c0 -5 -5 -10 -11 -10 -5 0 -7 5 -4 10 3 6 8 10 11 10 2 0 4
-4 4 -10z m-300 -234 c0 -2 -7 -7 -16 -10 -8 -3 -12 -2 -9 4 6 10 25 14 25 6z
m-1840 -238 c0 -4 -4 -8 -9 -8 -6 0 -12 4 -15 8 -3 5 1 9 9 9 8 0 15 -4 15 -9z
m1010 -202 c0 -3 -4 -8 -10 -11 -5 -3 -10 -1 -10 4 0 6 5 11 10 11 6 0 10 -2
10 -4z"/>
<path d="M1285 4020 c-4 -6 -11 -7 -17 -4 -7 4 -8 2 -4 -5 6 -9 11 -9 22 0 14
11 18 19 10 19 -3 0 -8 -5 -11 -10z"/>
<path d="M3886 3628 c3 -5 10 -6 15 -3 13 9 11 12 -6 12 -8 0 -12 -4 -9 -9z"/>
<path d="M476 2212 c-3 -5 1 -9 9 -9 8 0 12 4 9 9 -3 4 -7 8 -9 8 -2 0 -6 -4
-9 -8z"/>
<path d="M3910 1551 c0 -6 4 -13 10 -16 6 -3 7 1 4 9 -7 18 -14 21 -14 7z"/>
<path d="M3385 1260 c-3 -5 -5 -10 -3 -11 33 -8 38 -7 27 7 -14 17 -16 17 -24
4z"/>
<path d="M2786 957 c3 -10 9 -15 12 -12 3 3 0 11 -7 18 -10 9 -11 8 -5 -6z"/>
<path d="M593 815 c0 -8 4 -12 9 -9 5 3 6 10 3 15 -9 13 -12 11 -12 -6z"/>
</g>
</svg>
