<svg id="Capa_1" enable-background="new 0 0 509.509 509.509" height="512" viewBox="0 0 509.509 509.509" width="512" xmlns="http://www.w3.org/2000/svg"><g><path d="m381.754 389.967c-3.236 0-39.454 0-46.769 0l-12.231-15 18.527-15h40.473c16.542 0 30-13.456 30-30 0-10.128 0-139.87 0-150-15.985 0-49.148 0-63.048 0l-25.952-15 22.343-15h96.657v180c0 33.084-26.915 60-60 60z" fill="#bebcdd"/><path d="m118.968 321.222-21.213-1.213-8.47 8.779c2.282 10.021 38.874 170.678 41.162 180.721h86.309l10-30-10-45.001z" fill="#f9f9f9"/><path d="m338.956 110.919c-1.879-10.114-3.495-18.806-5.374-28.92-4.843 12.284-13.66 22.686-25.036 29.512l-91.792 322.998v45 30h86.314c18.104-63.74 38.486-132.644 45.91-200.063 7.432-67.478 1.73-131.53-10.022-198.527z" fill="#e2dff4"/><path d="m216.754 120.009-92.25-5.25-5.532 206.459c.018.101 12.764 79.906 21.672 113.291h76.11l10-144.5z" fill="#fec258"/><path d="m165.254 13.186c-23.438-18.793-57.59-17.708-79.709 4.695-10.979 11.12-17.791 26.45-17.791 43.134v238.994c0 16.568 13.431 30 30 30 16.568 0 30-13.432 30-30 0-10.128 0-139.871 0-150 0-16.568 13.431-30 30-30h59l15-59.17-15-59.171c-17.602-4.217-36.633-.403-51.5 11.518z" fill="#fee05b"/><path d="m309.422 116.182c-.021-.111-.926-4.983-.868-4.673l-91.8 8.499v314.5h76.186c10.024-37.265 17.849-70.498 22.89-103.39 9.118-59.483 9.981-121.456-6.408-214.936z" fill="#fd996b"/><path d="m240.254 13.186c-6.888-5.522-14.898-9.456-23.5-11.519v118.341h61c16.391 0 31.246-6.572 42.075-17.226 23.279-22.9 24.107-60.287 1.167-84.231-21.752-22.702-56.68-24.661-80.742-5.365z" fill="#fec258"/></g></svg>