<svg id="Capa_1" enable-background="new 0 0 505.1 505.1" height="512" viewBox="0 0 505.1 505.1" width="512" xmlns="http://www.w3.org/2000/svg"><g><g><path d="m77.4 292.3 26.8 40.9 40.9 26.8 33.3-19.2 19.2-33.3-39-53.2-53.2-39c-8.9 24.5-19.1 52.5-28 77z" fill="#fee05b"/><path d="m212.8 427.7c9.3-3.4 67.6-24.6 77-28l-39-53.2-53.2-39c-5.9 5.9-46.3 46.3-52.5 52.5l26.8 40.9z" fill="#fec258"/><path d="m49.4 369.3 14.5 28.7 28.7 14.5 33.3-19.2 19.2-33.3c-7.5-7.5-60.3-60.3-67.7-67.7-8.9 24.5-19.1 52.5-28 77z" fill="#ff6b6b"/><path d="m135.8 455.7c24.5-8.9 52.5-19.1 77-28-18.3-18.3-56.9-56.9-67.7-67.7-5.9 5.9-46.3 46.3-52.5 52.5l14.5 28.7z" fill="#ff3d7d"/><g id="XMLID_63_"><path d="m445.1 30c0-3 0-27 0-30h30v30c-10.5 0-19.5 0-30 0z" fill="#5ecbf1"/></g><g id="XMLID_61_"><path d="m475.1 60c0-10.5 0-19.5 0-30h30v30c-10.5 0-19.5 0-30 0z" fill="#4793ff"/></g><g id="XMLID_60_"><path d="m445.1 90c0-3 0-27 0-30h30v30c-10.5 0-19.5 0-30 0z" fill="#4793ff"/></g><g id="XMLID_51_"><path d="m190.1 60c0-10.5 0-19.5 0-30h30v30c-10.5 0-19.5 0-30 0z" fill="#fee05b"/></g><g id="XMLID_47_"><path d="m160.1 90c0-3 0-27 0-30h30v30c-10.5 0-19.5 0-30 0z" fill="#fee05b"/></g><g id="XMLID_39_"><path d="m233.3 160.6c-4.2-4.2-21-21-21.2-21.2 10.7-10.7 10.7-28.1 0-38.8 4.2-4.2 21-21 21.2-21.2 22.4 22.4 22.4 58.8 0 81.2z" fill="#5ecbf1"/></g><g id="XMLID_1_"><path d="m305.7 130.6c-4.2-4.2-21-21-21.2-21.2 5.2-5.2 9.8-9.8 15-15 19-19 19-49.8 0-68.8 7.4-7.4 13.8-13.8 21.2-21.2 30.7 30.7 30.7 80.6 0 111.2-1.6 1.5 5.5-5.5-15 15z" fill="#bee75e"/></g><path d="m269.5 214.4 10.6 10.6 67.1-52.9 52.9-67.1c-.2-.2-9.5-9.5-10.6-10.6-32.4 32.3-101.2 101.2-120 120z" fill="#a2e3f1"/><path d="m0 505.1 53.4-39.2 39.2-53.4c-5.3-5.3-32.3-32.3-43.2-43.2-2.8 7.5-46.7 128.2-49.4 135.8z" fill="#fee05b"/><path d="m105.4 215.3 92.2 92.2 38.6-24.5 24.5-38.6c-3.4-3.4-118.2-118.2-121.7-121.7-3.8 10.7-29.7 81.9-33.6 92.6z" fill="#ff6b6b"/><g fill="#ff3d7d"><path d="m445.1 315c0-3 0-27 0-30h30v30c-10.5 0-19.5 0-30 0z"/><path d="m475.1 345c0-10.5 0-19.5 0-30h30v30c-10.5 0-19.5 0-30 0z"/><path d="m415.1 345c0-10.5 0-19.5 0-30h30v30c-10.5 0-19.5 0-30 0z"/><path d="m445.1 375c0-3 0-27 0-30h30v30c-10.5 0-19.5 0-30 0z"/></g><path d="m365.7 293c-.4-.4-19.1-19.1-21.2-21.2 22.4-22.4 58.8-22.4 81.2 0-4.2 4.2-21 21-21.2 21.2-10.7-10.7-28.1-10.7-38.8 0z" fill="#4793ff"/><path d="m395.7 220.6c-7.4-7.4-13.8-13.8-21.2-21.2 5.2-5.2 9.8-9.8 15-15 30.7-30.7 80.5-30.7 111.2 0-4.2 4.2-21 21-21.2 21.2-19-19-49.8-19-68.8 0-1.5 1.5-13.5 13.5-15 15z" fill="#8ee26b"/><path d="m0 505.1c16.5-6 119.2-43.4 135.8-49.4-15.1-15.1-28.1-28.1-43.2-43.2-10.5 10.5-82 82-92.6 92.6z" fill="#fec258"/><path d="m289.8 399.7c9.9-3.6 82.6-30 92.6-33.7-3.4-3.4-118.2-118.2-121.7-121.7-7 7-56.2 56.2-63.1 63.1 11 11.1 81.1 81.3 92.2 92.3z" fill="#ff3d7d"/><path d="m290.7 235.6c32.3-32.3 101.2-101.2 120-120-.2-.2-9.5-9.5-10.6-10.6-32.3 32.3-101.2 101.2-120 120 .2.2 9.5 9.5 10.6 10.6z" fill="#5ecbf1"/></g><path d="m160.1 30c0-3 0-27 0-30h30v30c-10.5 0-19.5 0-30 0z" fill="#fee05b"/><path d="m130.1 60c0-10.5 0-19.5 0-30h30v30c-10.5 0-19.5 0-30 0z" fill="#fee05b"/><path d="m415.1 60c0-10.5 0-19.5 0-30h30v30c-10.5 0-19.5 0-30 0z" fill="#5ecbf1"/></g></svg>