<svg id="Capa_1" enable-background="new 0 0 480 480" height="512" viewBox="0 0 480 480" width="512" xmlns="http://www.w3.org/2000/svg"><g><path d="m240 330-37.5-10-37.5 10v150h75c0-10.492 0-19.508 0-30l10-60z" fill="#5ecbf1"/><path d="m315 450c0-44.289 0-78.428 0-120l-37.5-10-37.5 10v120z" fill="#4793ff"/><path d="m45 480h-30v-150l15-10 15 10z" fill="#eea472"/><path d="m435 480h30c0-10.128 0-139.871 0-150l-15-10-15 10z" fill="#d48760"/><path d="m165 180v60l37.5 10 37.5-10 10-60-10-60c-14.981 0-30.019 0-45 0z" fill="#4793ff"/><path d="m285 120c-14.981 0-30.019 0-45 0v120l37.5 10 37.5-10c0-7.259 0-52.693 0-60z" fill="#466bf6"/><path d="m195 131.459v-11.459l-75-28.604v-61.396h-60v105l105 45c18.386-9.193 30-27.985 30-48.541z" fill="#fee05b"/><path d="m360 91.396c-9.118 3.478-65.859 25.118-75 28.604v11.459c0 20.555 11.613 39.348 30 48.541 12.708-5.446 92.208-39.518 105-45 0-28.278 0-88.527 0-105-7.259 0-52.693 0-60 0z" fill="#fec258"/><path d="m197.594 102.406c10.864 10.865 25.864 17.594 42.406 17.594l10-60-10-60c-16.542 0-31.542 6.729-42.406 17.594-23.452 23.45-23.47 61.344 0 84.812z" fill="#ffccbd"/><path d="m300 60c0-33.083-26.915-60-60-60v120c33.083 0 60-26.915 60-60z" fill="#ffbda9"/><path d="m15 240v90h225l10-45-10-45c-15.192 0-209.806 0-225 0z" fill="#ff6b6b"/><path d="m465 240c-15.192 0-209.806 0-225 0v90h225c0-10.889 0-79.039 0-90z" fill="#ff3d7d"/></g></svg>