<svg id="Capa_1" enable-background="new 0 0 509.946 509.946" height="512" viewBox="0 0 509.946 509.946" width="512" xmlns="http://www.w3.org/2000/svg"><g><path d="m169.116 0c-10.976 0-79.328 0-90.333 0 6.494 9.984 110.553 169.969 117.047 179.953l29.571 10 29.572-10 10-20.203-10-30.725c-10.434-15.68-75.402-113.313-85.857-129.025z" fill="#ff6b6b"/><path d="m255.83 130.312c-.067-.101-.924-1.388-.857-1.287v50.928l16.887 10 16.887-10-9.552-30.953z" fill="#ff3d7d"/><path d="m254.973 129.025c11.817 17.819 21.957 33.11 33.773 50.928l13.542 10 13.542-10c6.398-9.984 108.919-169.946 115.333-179.953-10.977 0-79.328 0-90.333 0-10.435 15.681-75.402 113.313-85.857 129.025z" fill="#c1126b"/><path d="m210.512 257.027-14.682-3.762c0-19.937 0-61.678 0-73.313h59.143l10 15-10 15c-10.192 0-18.951 0-29.143 0v32.62z" fill="#fee05b"/><path d="m301.147 257.027 14.682-3.762c0-19.937 0-61.678 0-73.313-21.297 0-39.56 0-60.856 0v30h30.857v32.62z" fill="#fec258"/><path d="m120.461 374.585c0 74.27 60.177 134.893 134.512 135.357l10-135.357-10-135.356c-74.266.462-134.512 61.019-134.512 135.356z" fill="#fec258"/><path d="m391.197 374.585c0-75.129-61.425-135.867-136.225-135.356v270.714c74.827.51 136.225-60.257 136.225-135.358z" fill="#fd996b"/><path d="m150.461 374.585c0 57.737 46.729 104.894 104.512 105.357l10-105.357-10-105.357c-57.724.463-104.512 47.562-104.512 105.357z" fill="#fee05b"/><path d="m361.197 374.585c0-58.022-47.278-105.759-106.225-105.356v210.714c58.644.4 106.225-47.046 106.225-105.358z" fill="#fec258"/><path d="m240.83 314.953v33.651c-1.585-.915 2.117 1.222-29.781-17.193-5.246 9.086-9.754 16.894-15 25.98 2.865 1.654 26.852 15.503 29.781 17.194-2.342 1.352-26.233 15.146-29.143 16.826 5.246 9.086 9.754 16.894 15 25.98 2.342-1.353 26.233-15.146 29.143-16.826v34.387h14.143l10-60-10-60c-4.946.001-9.197.001-14.143.001z" fill="#fec258"/><path d="m270.83 400.566c1.551.896-2.072-1.196 29.142 16.825 5.246-9.086 9.754-16.894 15-25.98-3.037-1.753-26.154-15.1-29.143-16.826 3.063-1.768 26.667-15.397 29.78-17.194-5.246-9.086-9.754-16.894-15-25.98-1.585.915 2.117-1.222-29.78 17.193 0-11.769 0-21.882 0-33.651-5.546 0-10.311 0-15.857 0v120h15.857c.001-12.026.001-22.36.001-34.387z" fill="#fd996b"/></g></svg>